/* XPM */
static char * monalisa_small_xpm[] = {
"16 16 215 2",
"  	c #BA8756",
". 	c #B88555",
"+ 	c #B37F4E",
"@ 	c #B68251",
"# 	c #B88453",
"$ 	c #C08D5C",
"% 	c #C69463",
"& 	c #C28F5E",
"* 	c #BD8958",
"= 	c #C59362",
"- 	c #C49261",
"; 	c #C59261",
"> 	c #C69464",
", 	c #B88454",
"' 	c #BE8A59",
") 	c #C2905F",
"! 	c #BF8C5C",
"~ 	c #C08E5D",
"{ 	c #A17448",
"] 	c #7D5631",
"^ 	c #714B27",
"/ 	c #855C36",
"( 	c #AB7B4F",
"_ 	c #C49161",
": 	c #C99867",
"< 	c #CA9968",
"[ 	c #CA9868",
"} 	c #C79665",
"| 	c #CD9C6D",
"1 	c #946A43",
"2 	c #714B28",
"3 	c #6D4824",
"4 	c #4B2E12",
"5 	c #442A0F",
"6 	c #543415",
"7 	c #9C7046",
"8 	c #CB9A69",
"9 	c #D1A071",
"0 	c #C39161",
"a 	c #CC9B6A",
"b 	c #D1A173",
"c 	c #C2956C",
"d 	c #AE845E",
"e 	c #E2BD9B",
"f 	c #DCB592",
"g 	c #AE8055",
"h 	c #5C3A18",
"i 	c #492D10",
"j 	c #593817",
"k 	c #B98A5E",
"l 	c #D1A172",
"m 	c #CF9D6E",
"n 	c #D09F70",
"o 	c #D1A274",
"p 	c #D1A072",
"q 	c #D3A376",
"r 	c #DAAE86",
"s 	c #8E6744",
"t 	c #D7AE8A",
"u 	c #EBC9AA",
"v 	c #E9C5A5",
"w 	c #CC9D71",
"x 	c #8C5F34",
"y 	c #4E3012",
"z 	c #41280E",
"A 	c #835E3B",
"B 	c #BE8C5C",
"C 	c #C79566",
"D 	c #D0A072",
"E 	c #BF8E60",
"F 	c #D4A77E",
"G 	c #DCB28C",
"H 	c #C99E76",
"I 	c #D3A77E",
"J 	c #E5BE9B",
"K 	c #D8B08C",
"L 	c #CA9A6F",
"M 	c #AA7A4C",
"N 	c #603C1A",
"O 	c #482C10",
"P 	c #543516",
"Q 	c #8B5D2F",
"R 	c #A77545",
"S 	c #B17E4E",
"T 	c #7F5429",
"U 	c #AC7D50",
"V 	c #CDA27A",
"W 	c #A97C52",
"X 	c #63401E",
"Y 	c #9A6D42",
"Z 	c #BD9066",
"` 	c #A07146",
" .	c #9C6E44",
"..	c #996D43",
"+.	c #66411D",
"@.	c #4C2E11",
"#.	c #4A2D11",
"$.	c #6E4620",
"%.	c #885A2D",
"&.	c #885B2E",
"*.	c #65411D",
"=.	c #6A4520",
"-.	c #6F4922",
";.	c #6F4923",
">.	c #684624",
",.	c #DAAE85",
"'.	c #DCAF86",
").	c #CA9C72",
"!.	c #E1B892",
"~.	c #C08F63",
"{.	c #67421D",
"].	c #5A3918",
"^.	c #794E25",
"/.	c #895C2F",
"(.	c #86592F",
"_.	c #603D1A",
":.	c #5D3B19",
"<.	c #513315",
"[.	c #513417",
"}.	c #C5966B",
"|.	c #C99C72",
"1.	c #B2865E",
"2.	c #D3A57A",
"3.	c #96683B",
"4.	c #5B3918",
"5.	c #573616",
"6.	c #5C3A19",
"7.	c #714922",
"8.	c #7F542B",
"9.	c #5A3818",
"0.	c #553516",
"a.	c #4F3114",
"b.	c #4C2F12",
"c.	c #503214",
"d.	c #9A6C40",
"e.	c #BD8C5F",
"f.	c #A06E40",
"g.	c #B98555",
"h.	c #84582E",
"i.	c #583717",
"j.	c #68431D",
"k.	c #563616",
"l.	c #5F3C1A",
"m.	c #64401C",
"n.	c #5E3B19",
"o.	c #523315",
"p.	c #5E3D1E",
"q.	c #BE9268",
"r.	c #B58356",
"s.	c #8C6034",
"t.	c #613E1B",
"u.	c #523214",
"v.	c #553515",
"w.	c #6D461F",
"x.	c #6F4720",
"y.	c #65411C",
"z.	c #7D522A",
"A.	c #936336",
"B.	c #7B5228",
"C.	c #513214",
"D.	c #432A0F",
"E.	c #4B3216",
"F.	c #63401D",
"G.	c #593918",
"H.	c #583817",
"I.	c #583716",
"J.	c #513213",
"K.	c #4D2F12",
"L.	c #6B441F",
"M.	c #784E25",
"N.	c #98673A",
"O.	c #946336",
"P.	c #7A5026",
"Q.	c #533315",
"R.	c #3F270E",
"S.	c #432A10",
"T.	c #946538",
"U.	c #875B30",
"V.	c #86592C",
"W.	c #7E5329",
"X.	c #4F3113",
"Y.	c #67411D",
"Z.	c #6C451F",
"`.	c #69431D",
" +	c #482D12",
".+	c #492D11",
"++	c #926841",
"@+	c #C59569",
"#+	c #C08E60",
"$+	c #C39264",
"%+	c #B07F50",
"&+	c #5F3D1B",
"*+	c #4E2F12",
"=+	c #4D3012",
"-+	c #4A2E11",
";+	c #4F3012",
">+	c #AA7F57",
",+	c #DEB691",
"'+	c #E2BB98",
")+	c #DFB690",
"!+	c #DFB793",
"~+	c #C19062",
"{+	c #794F26",
"]+	c #633F1C",
"^+	c #623F1B",
"/+	c #754D24",
"(+	c #643F1B",
"_+	c #503113",
":+	c #D7AE89",
"<+	c #E7C5A5",
"[+	c #E6C1A0",
"}+	c #E6C2A2",
"|+	c #E1B995",
"1+	c #BD8E60",
"2+	c #65401C",
"  . + @ # @ # $ % & * = - * ; > ",
", ' ) ! ~ ) { ] ^ / ( - _   ) : ",
"= < [ } | 1 2 3 4 5 6 7 8 - : 9 ",
"0 a a b c d e f g h i j k l m n ",
"o p q r s t u v w x y z A B C D ",
"E F G H 3 I J K L M N O P Q R S ",
"T U V W X Y Z `  ...+.@.#.$.%.&.",
"*.=.-.;.>.,.'.).!.~.{.].6 ^./.(.",
"_.:.<.4 [.}.|.1.2.3.4.4.5.6.7.8.",
"9.0.a.b.c.d.e.f.g.h.].:.i._.{.j.",
"k.l.m.n.o.p.q.r.s.t.u.k.v.n.w.x.",
"y.z.A.B.C.D.E.F.G.H.I.J.K.6 t.L.",
"M.N.O.P.Q.R.S.T.U.V.W.X.#.b.Y.Z.",
"`. +c..+#.<.++@+#+$+%+*.&+*+=+m.",
"Z.-+b.;+6 >+,+'+)+!+~+{+]+u.#.^+",
"/+(+_+K.8.:+<+[+}+|+1+P.Y.7.2+y "};
