/* XPM */
static char *b926efc9673847bbab656c28c156606fTgCLGDuO98XJLxDT[] = {
/* columns rows colors chars-per-pixel */
"8 8 2 1 ",
"  c #0F380F",
". c #306230",
/* pixels */
".... ...",
"        ",
"........",
"        ",
"........",
"        ",
"........",
"        "
};
