/* XPM */
static char * potion_xpm[] = {
"16 16 13 1",
" 	c #55464C",
".	c #947062",
"+	c #A68679",
"@	c #000000",
"#	c #8F563B",
"$	c #663931",
"%	c #D4D4D4",
"&	c #5D4744",
"*	c #FFFFFF",
"=	c #D8D255",
"-	c #E3DE82",
";	c #785551",
">	c #8B605B",
" .....   .....  ",
"......+ ......+ ",
"......@@@.....+ ",
".....@###@....+ ",
"....@$###$@...+ ",
"....@%$$$%@..++ ",
"&++++@%%%@++++& ",
" &&&@%*=-%@&&&  ",
" ;;;@%*=-%@;;;  ",
";;;;@%===%@;;;> ",
";;;;;@%%%@;;;;> ",
";;;;;;@@@;;;;;> ",
";;;;;;> ;;;;;;> ",
";;;;;>> ;;;;;>> ",
"&>>>>>& &>>>>>& ",
" &&&&&   &&&&&  "};
