/* XPM */
static char *wall_16[] = {
/* columns rows colors chars-per-pixel */
"16 16 2 1 ",
"  c #4C3941",
". c #514047",
/* pixels */
"....  ...  .....",
".........  .....",
"................",
"................",
" ........ ......",
" ...............",
"................",
".............  .",
".  ..........  .",
".  .  ..........",
"....  ..........",
"................",
"..  ............",
"..  ...... ..  .",
".............  .",
"................"
};
