/* XPM */
static char *wall_7[] = {
/* columns rows colors chars-per-pixel */
"16 16 67 1 ",
"  c #5C312D",
". c #513336",
"X c #5A3637",
"o c #5E3734",
"O c #653732",
"+ c #663732",
"@ c #663833",
"# c #6B3A35",
"$ c #6C3A35",
"% c #6C3B36",
"& c #643A39",
"* c #683C38",
"= c #683D38",
"- c #6D3E3D",
"; c #753F39",
": c #65403F",
"> c #6E403B",
", c #69413D",
"< c #6A423E",
"1 c #6D403F",
"2 c #77443F",
"3 c #6E4241",
"4 c #6E4442",
"5 c #6F4444",
"6 c #704440",
"7 c #704746",
"8 c #5C576A",
"9 c #54617A",
"0 c #7F6768",
"q c #616077",
"w c #656076",
"e c #844841",
"r c #854C49",
"t c #87524F",
"y c #806766",
"u c #897D7D",
"i c #8D7F7F",
"p c #5C6A86",
"a c #5E6B86",
"s c #5E6C87",
"d c #626E88",
"f c #626F8A",
"g c #62708B",
"h c #6C7890",
"j c #6E7A90",
"k c #6E7D9C",
"l c #6F7D9C",
"z c #6F7F9F",
"x c #707D9C",
"c c #707D9D",
"v c #768196",
"b c #71809E",
"n c #71809F",
"m c #79849A",
"M c #7282A1",
"N c #908281",
"B c #908383",
"V c #939293",
"C c #8693AD",
"Z c #8A94AD",
"A c #8895AF",
"S c #8B96AE",
"D c #8B97B0",
"F c #949FB6",
"G c #96A1B8",
"H c #A9A7A7",
"J c None",
/* pixels */
"JJJJJJJJJJJJJJJJ",
"JJJJJJJJJJJJJJJJ",
"JJJJJJCAACJJJJJJ",
"JJJCACmGGmCACJJJ",
"hACmGFgMMgFGmCAh",
"vGFgMnakkanMgFGv",
"sMb8qw.XX.wq8bMs",
"9fd:o#O$$O# &df9",
"jDSVu%+%%+%+3ZDj",
"pzl7=%+>6@%@5lzp",
"9fd-+%+NH,%,idf9",
"jDZ3+%+yN=%<BZDj",
"pzl1+%+%%+%=0lzp",
"9fd4*%+%%+%+-df9",
"jDSVu%+%%+%+3ZDj",
"pzct2e;ee;e;rxzp"
};
