/* XPM */
static char *wall_11[] = {
/* columns rows colors chars-per-pixel */
"16 16 11 1 ",
"  c #55464C",
". c #947062",
"X c #140C1C",
"o c #A68679",
"O c #DAD45E",
"+ c #DEEED6",
"@ c #D27D2C",
"# c #854C30",
"$ c #5D4744",
"% c #785551",
"& c #8B605B",
/* pixels */
" .....   .....  ",
"......XXXX....o ",
".....XO++OX...o ",
".....X@OO@XXX.o ",
".....X####X+OXo ",
"...XXX#OO@XO@Xo ",
"$oXO++O###XXXo$ ",
" XX@OO@#O@X$$$  ",
"X@X#######XXX%  ",
"XOX@OO@X#O++OX& ",
"XOX####X#@OO@X& ",
"X@X++O#XX####X& ",
"%XX+@O#XX@OXXXX ",
"%%XOO@X %XXO++OX",
"$&&XXX$ $&X@OO@X",
" $$$$$   $$XXXX "
};
